<svg xmlns="http://www.w3.org/2000/svg" width="320" height="224" viewBox="0 0 320 224" shape-rendering="crispEdges"><path d="M293 185L307 180L310 183L311 202L298 207L292 202Z" fill="#927158" opacity="1"/><path d="M293 185L298 188L310 183L307 180Z" fill="#b59a77" opacity="1"/><path d="M298 189L310 185V201L299 204Z" fill="#775643" opacity="1"/><path d="M294 190L297 192V203L294 201Z" fill="#c1a381" opacity="0.6"/><path d="M297 182V178L301 177L305 178V183H303V179H299V184Z" fill="#b49a7d" opacity="1"/><path d="M294 199L299 202L310 198V201L299 206L294 203Z" fill="#c6b69e" opacity="0.45"/><rect x="306" y="194" width="1" height="1" fill="#614c40" opacity="0.35"/><rect x="304" y="191" width="1" height="1" fill="#997352" opacity="0.55"/><rect x="306" y="194" width="2" height="1" fill="#614c40" opacity="0.75"/><rect x="306" y="192" width="2" height="1" fill="#997352" opacity="0.35"/><rect x="303" y="192" width="2" height="1" fill="#997352" opacity="0.55"/><rect x="301" y="191" width="1" height="1" fill="#614c40" opacity="0.35"/><rect x="307" y="192" width="2" height="1" fill="#614c40" opacity="0.75"/><rect x="305" y="190" width="1" height="1" fill="#614c40" opacity="0.75"/><rect x="300" y="195" width="1" height="1" fill="#614c40" opacity="0.55"/><rect x="300" y="196" width="1" height="1" fill="#997352" opacity="0.75"/><rect x="303" y="193" width="2" height="1" fill="#614c40" opacity="0.35"/><rect x="304" y="191" width="1" height="1" fill="#997352" opacity="0.75"/><rect x="302" y="194" width="2" height="1" fill="#614c40" opacity="0.55"/><rect x="305" y="192" width="1" height="1" fill="#997352" opacity="0.75"/><rect x="304" y="195" width="1" height="1" fill="#997352" opacity="0.55"/><rect x="300" y="197" width="2" height="1" fill="#614c40" opacity="0.55"/><rect x="300" y="193" width="1" height="1" fill="#614c40" opacity="0.35"/><rect x="307" y="190" width="2" height="1" fill="#997352" opacity="0.55"/><rect x="307" y="196" width="1" height="1" fill="#997352" opacity="0.55"/><rect x="302" y="191" width="1" height="1" fill="#997352" opacity="0.75"/></svg>
