<svg xmlns="http://www.w3.org/2000/svg" width="320" height="224" viewBox="0 0 320 224" shape-rendering="crispEdges"><path d="M116 143L132 138L136 142V161L120 166L116 163Z" fill="#332c35" opacity="1"/><path d="M119 144L132 141V158L119 162Z" fill="#15151d" opacity="1"/><path d="M121 148L130 145V155L121 158Z" fill="#a96238" opacity="1"/><path d="M123 148L128 147V155L123 156Z" fill="#dca66b" opacity="0.65"/><rect x="120" y="144" width="1" height="16" fill="#5c5255" opacity="0.8"/><rect x="123" y="144" width="1" height="16" fill="#5c5255" opacity="0.8"/><rect x="126" y="144" width="1" height="16" fill="#5c5255" opacity="0.8"/><rect x="129" y="144" width="1" height="16" fill="#5c5255" opacity="0.8"/><rect x="132" y="144" width="1" height="16" fill="#5c5255" opacity="0.8"/><path d="M119 147L132 144M119 151L132 148M119 156L132 153" fill="#3d353b" opacity="1"/><rect x="119" y="163" width="2" height="3" fill="#817274" opacity="1"/><rect x="133" y="159" width="2" height="4" fill="#63555a" opacity="1"/></svg>
