<svg xmlns="http://www.w3.org/2000/svg" width="960" height="672" viewBox="0 0 320 224"><path d="M0 0H320L208 25H112Z" fill="#241c28"/><path d="M0 0L112 25V124L0 224Z" fill="#61343f"/><path d="M320 0L208 25V124L320 224Z" fill="#4a2734"/><path d="M112 25H208V124H112Z" fill="#4e2b3b"/><path d="M0 224L112 124H208L320 224Z" fill="#3b3037"/><polygon points="0,45 47,64 47,202 0,224" fill="#100e18" stroke="#87606a" stroke-width="2"/><polygon points="68,68 103,82 103,144 68,163" fill="#100e18" stroke="#87606a" stroke-width="2"/><polygon points="138,48 181,48 181,125 138,125" fill="#100e18" stroke="#87606a" stroke-width="2"/><polygon points="226,73 263,56 263,177 226,157" fill="#100e18" stroke="#87606a" stroke-width="2"/><path d="M0 223L112 124H138M181 124H208L320 223" fill="none" stroke="#927175" stroke-width="2"/></svg>